<?xml version="1.0" standalone="no"?>
<!DOCTYPE svg PUBLIC "-//W3C//DTD SVG 20010904//EN"
 "http://www.w3.org/TR/2001/REC-SVG-20010904/DTD/svg10.dtd">
<svg version="1.0" xmlns="http://www.w3.org/2000/svg"
 width="900.000000pt" height="900.000000pt" viewBox="0 0 900.000000 900.000000"
 preserveAspectRatio="xMidYMid meet">
<metadata>
Created by potrace 1.14, written by Peter Selinger 2001-2017
</metadata>
<g transform="translate(0.000000,900.000000) scale(0.100000,-0.100000)"
fill="#000000" stroke="none">
<path d="M4338 6808 c-59 -16 -73 -38 -76 -133 -5 -109 43 -306 109 -453 16
-34 29 -65 29 -68 0 -24 144 -290 170 -314 7 -7 70 -100 70 -104 0 -2 -48 -6
-107 -9 -110 -5 -310 -46 -435 -88 -233 -78 -446 -197 -561 -313 -23 -23 -61
-57 -84 -75 -45 -34 -54 -57 -28 -67 18 -7 61 22 155 102 101 86 350 202 590
275 212 65 408 99 568 99 61 0 63 1 57 23 -4 12 -13 27 -20 32 -6 6 -16 21
-20 35 -4 14 -11 27 -14 30 -9 6 -91 131 -125 190 -25 42 -136 267 -136 275 0
2 -14 34 -31 70 -17 37 -28 69 -25 72 2 3 26 -2 53 -10 122 -40 346 -46 385
-11 25 23 13 33 237 -202 110 -116 194 -211 223 -250 33 -45 126 -170 179
-240 26 -34 49 -78 53 -98 4 -20 11 -36 16 -36 6 0 10 -4 10 -9 0 -5 -9 -7
-20 -4 -11 3 -20 0 -20 -6 0 -6 7 -11 15 -11 8 0 19 -9 25 -20 6 -11 14 -19
19 -17 8 2 196 -131 233 -165 7 -7 34 -29 58 -48 91 -70 280 -242 327 -297 92
-110 106 -123 129 -123 13 0 40 -10 61 -21 43 -24 156 -116 162 -131 2 -6 20
-28 41 -49 69 -71 117 -188 135 -325 26 -206 -127 -647 -277 -795 -39 -38 -48
-54 -48 -81 0 -42 33 -80 63 -76 19 3 22 9 22 52 0 35 4 51 15 54 8 2 49 39
91 83 57 58 88 102 124 171 51 100 105 246 126 343 17 80 17 266 0 335 -54
216 -246 427 -446 490 -49 15 -71 34 -96 80 -10 19 -28 48 -41 65 -27 35 -222
232 -258 260 -127 101 -218 164 -306 210 -91 49 -89 48 -105 103 -12 46 -31
84 -111 227 -125 222 -433 551 -733 783 -5 4 -35 23 -65 42 -30 19 -61 40 -68
47 -20 20 -192 100 -227 106 -16 3 -47 1 -67 -5z"/>
<path d="M6413 5893 c-21 -19 -103 -191 -103 -215 0 -21 43 -58 66 -58 38 1
66 39 98 131 22 62 20 115 -4 139 -24 24 -32 25 -57 3z"/>
<path d="M6573 5559 c-46 -23 -58 -41 -43 -70 8 -15 22 -19 61 -19 85 0 134
44 102 89 -18 27 -64 27 -120 0z"/>
<path d="M6737 5345 c-31 -6 -62 -16 -68 -22 -21 -21 -4 -47 41 -64 77 -29
150 10 121 65 -18 33 -26 35 -94 21z"/>
<path d="M2660 5264 c-320 -20 -395 -28 -679 -73 -169 -28 -222 -39 -321 -68
-47 -14 -104 -28 -127 -32 -24 -5 -52 -16 -62 -25 -36 -33 -34 -60 10 -133 73
-121 146 -182 325 -272 134 -67 253 -109 423 -147 156 -35 398 -44 553 -20
124 18 160 11 184 -36 17 -34 13 -94 -11 -151 -22 -55 -46 -216 -52 -362 -11
-271 43 -505 169 -730 84 -148 126 -196 279 -319 49 -39 226 -106 280 -106 30
0 92 -54 137 -119 23 -33 23 -36 9 -67 -9 -18 -21 -61 -28 -96 -6 -34 -13 -69
-15 -76 -5 -16 -23 -4 -174 113 -122 94 -143 108 -189 123 -42 15 -78 0 -154
-66 -127 -111 -127 -110 -127 -54 0 64 -30 242 -51 306 -11 34 -33 74 -47 90
-65 69 -189 86 -308 41 l-66 -25 7 107 c20 293 0 582 -47 664 -32 57 -84 74
-177 60 -39 -6 -90 -17 -113 -25 -24 -7 -74 -24 -113 -36 -95 -31 -244 -109
-438 -231 -89 -56 -164 -105 -167 -109 -3 -3 -27 -22 -55 -40 -27 -19 -67 -52
-88 -75 -41 -44 -40 -33 -18 -184 15 -105 90 -380 120 -446 5 -11 17 -45 27
-75 62 -195 127 -222 250 -102 33 31 73 69 89 83 17 14 88 80 159 147 71 66
133 119 137 116 4 -2 11 -19 14 -37 4 -17 11 -36 15 -42 4 -5 17 -36 29 -68
50 -136 94 -187 161 -187 31 0 56 11 117 53 98 67 113 73 113 46 0 -25 78
-261 91 -273 5 -6 9 -17 9 -25 0 -28 82 -159 107 -170 39 -18 54 -14 167 44
60 30 122 59 140 64 17 5 49 17 71 25 78 30 134 21 348 -51 199 -68 199 -68
219 -107 11 -22 25 -45 32 -53 6 -7 16 -19 22 -26 7 -8 24 -23 39 -35 l26 -21
-50 -48 c-61 -59 -74 -108 -45 -162 14 -27 32 -40 69 -54 70 -26 262 -19 390
16 99 26 271 92 296 113 8 8 28 14 42 14 44 0 271 38 422 71 246 53 241 52
293 34 99 -33 301 -29 482 11 75 17 255 79 285 98 11 7 34 16 50 19 252 51
364 75 427 93 11 3 21 -4 30 -22 50 -102 208 -85 355 38 62 51 155 165 188
228 31 60 55 145 55 192 0 120 -111 197 -221 153 -11 -4 -20 5 -34 37 -71 167
-110 230 -197 318 -99 101 -177 150 -162 103 5 -16 3 -15 -10 1 -9 11 -18 17
-21 14 -3 -3 21 -32 53 -64 81 -82 144 -171 202 -290 57 -115 76 -189 52 -199
-11 -4 -12 -9 -4 -17 8 -8 8 -17 1 -30 -15 -28 -6 -31 24 -8 14 11 30 20 35
20 5 0 29 9 53 20 54 24 105 26 113 4 13 -33 5 -111 -17 -164 -46 -111 -204
-297 -269 -317 -57 -17 -117 6 -118 46 -2 59 -59 74 -90 23 -11 -17 -25 -32
-32 -32 -7 0 -85 -7 -173 -15 -88 -8 -163 -15 -168 -15 -4 0 -1 13 8 30 49 95
78 355 57 517 -7 49 -16 129 -22 178 -6 50 -15 108 -20 130 -5 22 -12 53 -15
68 -3 16 -30 51 -66 85 -34 31 -95 101 -136 155 -57 75 -74 104 -71 125 2 22
8 27 32 28 16 1 42 -6 58 -14 30 -15 54 -8 28 8 -8 6 -11 10 -6 10 6 0 19 -8
30 -18 23 -20 133 -55 147 -46 5 3 9 2 9 -3 0 -9 42 -29 84 -39 21 -5 27 -4
22 5 -4 6 -2 11 3 11 22 0 10 29 -23 54 -31 23 -161 85 -212 100 -15 5 -24 24
-39 83 -15 58 -16 78 -7 81 7 2 12 8 12 13 0 6 -5 7 -12 3 -7 -4 -8 -3 -4 5 4
6 11 9 16 6 14 -8 22 14 16 40 -14 55 -210 55 -493 -1 -67 -13 -127 -24 -132
-24 -5 0 -11 10 -14 23 -11 50 -38 142 -49 171 -24 58 -145 301 -176 353 -30
50 -32 59 -34 170 -3 110 -4 118 -24 121 -31 4 -56 -32 -62 -87 l-4 -49 -57 1
c-45 1 -64 -4 -98 -26 -23 -14 -44 -31 -48 -37 -4 -6 -19 -1 -39 15 -68 52
-62 20 18 -98 57 -84 83 -141 100 -219 7 -32 18 -35 41 -12 9 10 20 13 24 8
20 -22 130 -342 134 -387 2 -27 -2 -30 -68 -52 -209 -69 -448 -175 -522 -231
-17 -13 -34 -24 -38 -24 -11 0 -55 -52 -55 -65 0 -28 29 -39 77 -28 61 14 90
3 91 -34 0 -15 32 -97 71 -181 38 -83 75 -168 81 -188 7 -20 18 -48 26 -62 12
-24 12 -27 -3 -31 -9 -2 -40 1 -68 7 -110 23 -125 24 -119 8 3 -8 14 -18 25
-21 34 -11 21 -28 -15 -21 -25 5 -35 3 -39 -8 -4 -10 -1 -13 8 -10 7 3 23 1
34 -5 11 -7 22 -7 25 -2 3 5 30 0 58 -11 46 -18 68 -20 171 -15 l117 6 -6 -27
c-4 -15 -12 -37 -20 -49 -14 -22 -156 -121 -206 -144 -16 -7 -28 -16 -28 -21
0 -15 79 -8 130 11 l51 19 10 -26 c6 -15 33 -103 60 -196 28 -93 54 -176 58
-185 5 -9 11 -36 15 -61 l7 -45 -78 -18 c-43 -9 -112 -22 -153 -27 -41 -5
-120 -16 -175 -25 -55 -8 -131 -15 -168 -15 -52 0 -66 -3 -61 -12 6 -10 4 -10
-7 -1 -16 15 -129 18 -129 3 0 -5 -13 -10 -30 -10 -33 0 -37 -5 -17 -23 14
-14 29 -18 75 -25 17 -2 32 -8 32 -12 0 -10 -140 -56 -240 -78 -99 -22 -230
-28 -259 -12 -12 6 -21 20 -21 32 0 24 86 114 114 119 36 7 29 45 -15 80 -58
45 -84 94 -109 195 -28 116 -35 226 -20 311 7 37 14 77 15 88 2 11 10 38 19
59 24 58 21 86 -8 86 -14 0 -28 -5 -31 -10 -4 -6 -23 6 -45 29 -43 44 -96 75
-150 86 -47 10 -164 70 -220 112 -124 94 -201 194 -288 370 -96 195 -136 358
-146 593 -7 144 15 378 49 528 18 77 12 102 -24 102 -9 0 -21 4 -27 10 -11 11
-51 13 -119 5 -52 -7 -249 6 -390 25 -182 24 -675 171 -675 201 0 5 4 9 8 9 5
0 17 8 28 18 10 9 37 30 59 47 22 16 45 33 50 37 71 53 169 148 183 177 l17
36 135 12 c289 25 536 35 785 31 l260 -3 0 23 c0 51 -162 81 -455 86 -96 2
-200 2 -230 0z m2456 -890 c0 -5 23 -55 51 -111 29 -57 55 -113 59 -125 3 -13
22 -57 41 -98 19 -41 44 -97 55 -125 11 -27 26 -64 35 -82 8 -17 15 -37 17
-45 1 -7 5 -19 9 -26 8 -12 3 -16 -44 -26 -24 -5 -26 -2 -56 92 -33 103 -49
142 -120 289 -44 92 -80 145 -128 193 -38 38 -33 57 18 68 47 11 62 10 63 -4z
m886 -684 c43 -87 42 -93 -17 -101 -28 -3 -60 -9 -70 -13 -41 -12 -60 -132
-33 -201 25 -64 148 -193 231 -243 31 -19 52 -79 43 -123 -3 -15 -1 -42 4 -60
5 -19 11 -76 13 -127 4 -84 2 -96 -15 -112 -11 -10 -17 -23 -14 -29 7 -11 -12
-26 -22 -17 -3 4 -6 21 -7 39 0 23 -5 33 -19 35 -13 3 -17 0 -13 -11 3 -9 -4
-19 -19 -26 -26 -11 -26 -13 -29 -81 -3 -52 10 -84 30 -76 18 7 31 -12 17 -26
-7 -7 -22 -4 -46 7 -37 18 -44 33 -26 51 16 16 1 44 -22 44 -12 0 -29 -10 -39
-22 -11 -11 -22 -18 -26 -14 -4 4 -1 11 7 16 12 7 12 12 2 22 -9 9 -12 9 -12
-5 0 -9 -5 -17 -11 -17 -8 0 -8 -4 0 -14 6 -7 8 -22 4 -32 -7 -18 -6 -18 20
-1 14 9 31 17 37 17 15 0 12 -40 -2 -41 -10 0 -10 -2 0 -6 6 -2 10 -9 7 -13
-3 -5 -12 -7 -20 -3 -8 3 -15 0 -15 -6 0 -7 8 -14 18 -18 9 -3 24 -12 32 -19
16 -13 73 -7 64 7 -3 5 8 14 23 21 15 7 36 21 46 32 17 19 17 19 17 -5 0 -14
5 -30 11 -36 9 -9 9 -34 0 -101 -14 -115 -28 -151 -73 -200 -53 -58 -151 -83
-401 -103 -121 -10 -150 -10 -160 1 -7 8 -7 10 -1 7 16 -9 46 91 37 123 -3 14
-18 42 -32 62 -26 37 -46 48 -53 27 -2 -6 -24 -12 -49 -13 -43 -3 -46 -2 -41
20 3 17 0 24 -11 24 -20 0 -31 -16 -17 -25 19 -12 10 -25 -14 -19 -20 5 -27
-1 -45 -36 -11 -22 -21 -48 -20 -58 1 -11 4 -8 9 8 7 23 8 24 15 6 6 -15 3
-23 -13 -34 -30 -20 -28 -38 6 -51 20 -8 21 -10 5 -7 -13 2 -23 0 -23 -5 0 -5
10 -9 23 -9 12 0 32 -3 45 -6 18 -5 22 -2 22 15 0 12 6 21 14 21 21 0 31 21
15 31 -20 13 -29 11 -29 -5 0 -16 -37 -28 -46 -14 -3 5 4 20 17 34 19 21 20
24 5 24 -10 0 -14 5 -11 11 5 7 13 5 24 -5 10 -9 25 -16 34 -16 9 0 19 -4 22
-10 9 -15 35 -12 35 4 0 8 6 16 13 19 16 6 67 -24 67 -40 0 -17 -47 -28 -64
-14 -11 9 -15 5 -19 -19 -4 -16 -4 -36 -1 -44 5 -13 -1 -14 -151 -2 -77 6 -80
9 -92 89 -12 85 -63 282 -93 356 -11 28 -20 57 -20 64 0 7 16 30 35 52 19 22
42 55 51 74 15 31 15 37 0 68 -23 49 -81 64 -165 42 -15 -4 -18 0 -86 141 -59
120 -105 199 -148 253 -50 61 -76 120 -46 101 14 -8 -7 33 -29 59 -8 9 -13 20
-10 23 12 11 305 116 375 134 40 11 93 26 118 35 81 27 89 24 104 -47 8 -35
17 -67 21 -73 4 -5 13 -39 20 -75 6 -36 38 -173 70 -305 90 -376 97 -417 75
-438 -8 -9 -15 -23 -15 -32 0 -9 -4 -14 -9 -11 -5 3 -14 -1 -21 -9 -15 -18
-46 -20 -53 -2 -3 6 -6 2 -6 -10 -1 -13 -5 -23 -11 -23 -5 0 -8 -10 -6 -22 1
-13 5 -22 7 -21 2 1 16 6 32 12 15 6 27 15 27 21 0 5 7 10 15 10 8 0 15 5 15
10 0 6 7 10 15 10 10 0 15 10 15 27 0 44 19 13 26 -42 3 -28 13 -73 20 -101
15 -51 16 -52 60 -59 38 -5 55 -2 98 19 79 39 82 50 57 202 -51 314 -93 528
-152 774 -16 69 -60 213 -70 232 -20 39 -31 35 211 87 253 54 246 54 282 -19z
m-3528 -48 c26 -82 34 -421 15 -636 -11 -121 -11 -126 11 -155 28 -41 60 -40
152 3 123 57 149 66 195 66 34 0 50 -6 69 -25 48 -48 57 -87 64 -285 8 -193
16 -232 49 -249 45 -25 84 -4 229 118 46 39 87 71 92 71 5 0 53 -35 107 -77
121 -94 221 -162 251 -170 15 -3 22 -13 22 -28 l0 -23 -66 24 c-79 28 -168 49
-370 84 -63 11 -77 7 -189 -45 -16 -7 -57 -26 -90 -41 -33 -15 -73 -36 -89
-47 l-29 -20 -20 24 c-47 58 -157 326 -157 383 0 7 -9 25 -21 40 -30 38 -72
34 -185 -19 -79 -38 -99 -44 -111 -33 -8 7 -40 62 -69 123 -43 87 -62 116 -94
138 -40 28 -76 29 -107 4 -22 -16 -16 43 21 211 118 536 137 577 273 581 32 1
43 -3 47 -17z m2952 -27 c-3 -8 -1 -15 4 -15 6 0 10 -9 10 -20 0 -12 7 -49 15
-83 31 -135 63 -276 80 -352 9 -44 28 -125 41 -180 13 -55 28 -120 33 -145 5
-25 23 -106 40 -179 33 -143 32 -151 -17 -151 -37 0 -70 41 -77 96 -3 27 -9
60 -12 74 -3 14 -7 43 -9 65 -9 89 -84 437 -133 615 -11 41 -31 114 -44 163
-13 48 -27 90 -31 94 -4 5 12 13 36 19 60 17 71 16 64 -1z m811 -161 c-3 -3
-12 -4 -19 -1 -8 3 -5 6 6 6 11 1 17 -2 13 -5z m-114 -818 c9 -7 17 -23 17
-35 0 -26 -8 -27 -27 -3 -11 13 -16 14 -20 4 -4 -10 -9 -8 -20 7 -25 37 11 56
50 27z m-123 -46 c0 -5 -2 -10 -4 -10 -3 0 -8 5 -11 10 -3 6 -1 10 4 10 6 0
11 -4 11 -10z m157 -42 c-3 -8 -6 -5 -6 6 -1 11 2 17 5 13 3 -3 4 -12 1 -19z
m-661 -315 c-10 -10 -19 5 -10 18 6 11 8 11 12 0 2 -7 1 -15 -2 -18z m-100
-10 c-10 -10 -19 5 -10 18 6 11 8 11 12 0 2 -7 1 -15 -2 -18z m144 -35 c0 -6
-6 -5 -15 2 -8 7 -15 14 -15 16 0 2 7 1 15 -2 8 -4 15 -11 15 -16z m-65 -78
c-3 -5 -13 -10 -21 -10 -8 0 -14 5 -14 10 0 6 9 10 21 10 11 0 17 -4 14 -10z"/>
<path d="M5900 3074 c0 -11 28 -33 34 -27 13 13 5 33 -14 33 -11 0 -20 -3 -20
-6z"/>
<path d="M5883 3015 c-1 -24 3 -35 13 -35 15 0 18 27 8 54 -10 27 -20 18 -21
-19z"/>
<path d="M5799 3013 c-13 -17 -13 -17 6 -3 11 8 22 16 24 17 2 2 0 3 -6 3 -6
0 -17 -8 -24 -17z"/>
<path d="M5965 3020 c-4 -6 -16 -8 -27 -4 -17 5 -20 3 -14 -12 14 -38 51 -84
67 -84 9 0 19 -6 22 -13 6 -15 -15 -47 -32 -47 -17 0 -13 18 6 29 29 16 6 25
-32 14 -28 -9 -35 -8 -35 2 0 7 5 15 11 17 7 2 5 9 -5 17 -14 11 -16 11 -16
-2 0 -8 -3 -22 -6 -31 -4 -11 2 -19 19 -25 20 -8 24 -15 19 -33 -8 -34 -23
-45 -50 -40 -18 4 -23 1 -17 -8 5 -9 22 -10 59 -5 55 7 88 28 79 51 -3 8 0 14
6 14 6 0 11 -4 11 -10 0 -5 5 -10 10 -10 6 0 10 13 10 28 0 15 4 32 9 38 5 5
7 21 4 37 -4 21 -9 25 -18 17 -9 -8 -14 -4 -17 15 -4 17 -1 25 8 25 8 0 14 5
14 11 0 7 -10 9 -24 5 -14 -3 -28 -2 -31 4 -8 13 -22 13 -30 0z m55 -80 c0 -5
-4 -10 -10 -10 -5 0 -10 5 -10 10 0 6 5 10 10 10 6 0 10 -4 10 -10z"/>
<path d="M5832 2996 c-6 -15 -7 -27 -1 -33 6 -6 2 -17 -10 -30 -24 -26 -11
-41 29 -35 34 5 41 31 14 53 -9 7 -14 22 -11 36 6 32 -8 38 -21 9z"/>
<path d="M5785 2959 c-4 -6 -5 -13 -2 -16 7 -7 27 6 27 18 0 12 -17 12 -25 -2z"/>
<path d="M5835 2860 c-9 -28 3 -44 21 -29 10 8 18 8 27 1 8 -7 18 -7 27 -2 12
8 10 10 -7 10 -13 0 -24 8 -28 20 -8 26 -32 26 -40 0z"/>
<path d="M5956 2721 c-13 -15 -15 -26 -9 -52 10 -36 20 -43 43 -29 12 8 12 11
-3 28 -23 25 -22 36 3 29 26 -7 35 9 16 28 -19 20 -29 19 -50 -4z"/>
<path d="M5275 2690 c-3 -5 -1 -10 4 -10 6 0 11 5 11 10 0 6 -2 10 -4 10 -3 0
-8 -4 -11 -10z"/>
<path d="M5336 2691 c-7 -11 14 -20 32 -14 6 3 12 9 12 14 0 12 -37 12 -44 0z"/>
<path d="M5280 2646 c0 -20 5 -26 21 -26 12 0 27 -6 33 -14 7 -10 21 -13 39
-9 22 4 25 8 16 19 -6 8 -17 14 -25 14 -7 0 -29 9 -48 21 l-36 21 0 -26z"/>
<path d="M5431 2624 c0 -11 3 -14 6 -6 3 7 2 16 -1 19 -3 4 -6 -2 -5 -13z"/>
<path d="M5280 2584 c0 -8 -4 -12 -10 -9 -5 3 -10 -1 -10 -9 0 -20 10 -20 35
-3 10 8 15 19 11 25 -10 17 -26 15 -26 -4z"/>
<path d="M6095 2460 c3 -5 8 -10 11 -10 2 0 4 5 4 10 0 6 -5 10 -11 10 -5 0
-7 -4 -4 -10z"/>
<path d="M5840 2423 c0 -10 5 -24 11 -30 8 -8 8 -13 0 -17 -6 -4 -11 -2 -11 5
0 10 -3 10 -11 2 -8 -8 -8 -16 0 -30 6 -11 11 -13 11 -4 0 8 6 11 15 7 9 -3
18 1 21 9 9 22 21 18 28 -7 5 -20 8 -21 17 -8 8 12 10 10 5 -10 -3 -14 -6 -34
-7 -45 -1 -16 -2 -15 -8 5 -4 14 -15 26 -25 28 -16 3 -18 0 -12 -22 5 -19 2
-26 -8 -26 -8 0 -17 8 -19 18 -4 14 -5 14 -6 -3 -1 -16 -3 -17 -10 -6 -7 11
-13 12 -23 4 -23 -18 -58 -22 -58 -7 0 8 3 13 8 12 4 -1 20 6 35 16 l28 19
-22 23 c-30 32 -35 30 -50 -11 -13 -35 -29 -47 -29 -21 0 8 7 21 15 30 8 8 11
17 7 20 -10 6 -42 -56 -42 -79 0 -8 7 -15 15 -15 8 0 15 -7 15 -15 0 -8 -4
-15 -10 -15 -5 0 -10 -9 -10 -20 0 -24 16 -26 28 -4 6 11 17 15 30 12 13 -4
27 1 38 13 21 23 34 24 34 4 0 -10 10 -15 30 -15 26 0 29 -3 22 -17 -5 -10 -7
-24 -5 -30 3 -7 -2 -13 -11 -13 -20 0 -30 17 -14 23 8 4 7 6 -4 6 -9 1 -19 7
-22 14 -3 9 -8 7 -16 -5 -8 -13 -17 -15 -39 -8 -43 12 -51 -16 -14 -48 25 -21
28 -22 31 -7 2 10 -2 21 -9 26 -23 14 -4 19 24 6 18 -8 25 -18 22 -28 -5 -14
0 -15 37 -8 24 4 46 8 50 9 4 0 12 9 18 19 7 15 6 24 -6 36 -21 21 -9 33 16
17 27 -17 30 -15 30 11 0 13 5 28 11 34 8 8 8 13 0 17 -6 4 -11 15 -11 26 0
10 -7 21 -16 24 -8 3 -12 10 -9 16 11 17 -5 32 -21 19 -17 -14 -19 2 -2 19 7
7 10 12 8 13 -3 0 -20 2 -39 5 -19 2 -40 9 -48 15 -10 9 -13 7 -13 -8z m116
-150 c-5 -12 -10 -13 -18 -5 -8 8 -8 15 3 28 15 18 25 4 15 -23z"/>
<path d="M5784 2420 c-38 -15 -34 -26 7 -22 23 3 38 9 36 15 -5 15 -18 17 -43
7z"/>
<path d="M5410 2330 c0 -5 7 -10 15 -10 8 0 15 5 15 10 0 6 -7 10 -15 10 -8 0
-15 -4 -15 -10z"/>
<path d="M5642 4972 c-57 -17 -119 -108 -129 -192 -5 -43 -3 -51 21 -75 39
-39 64 -30 106 36 19 30 45 71 57 90 31 47 31 112 1 133 -12 9 -25 16 -28 15
-3 -1 -15 -4 -28 -7z"/>
<path d="M3951 4410 c-46 -48 -53 -86 -21 -115 16 -15 43 -18 162 -21 181 -6
188 -4 188 42 0 44 -12 56 -92 96 -45 22 -82 32 -129 36 l-67 5 -41 -43z"/>
<path d="M6952 3991 c-7 -4 -16 -29 -21 -57 -13 -65 -31 -115 -74 -199 -37
-75 -55 -135 -39 -135 22 0 77 -157 97 -272 13 -80 85 -62 85 22 0 59 -75 240
-100 240 -21 0 -18 34 5 62 20 24 26 27 31 14 4 -9 14 -15 23 -14 12 2 22 -19
43 -100 29 -114 39 -132 74 -132 22 0 54 23 54 40 0 4 11 11 25 14 15 4 25 14
25 24 0 29 -40 140 -56 152 -24 21 -44 4 -45 -37 0 -21 -3 -31 -6 -23 -33 91
-75 139 -108 126 -19 -7 -19 -7 4 48 52 119 41 263 -17 227z"/>
<path d="M7095 3990 c-3 -6 7 -18 23 -27 44 -25 62 -64 69 -143 7 -87 0 -89
-82 -20 -93 78 -115 59 -46 -40 66 -96 137 -125 186 -76 68 68 19 253 -78 297
-48 21 -63 23 -72 9z"/>
<path d="M6705 3519 c-11 -6 -31 -26 -45 -46 -44 -64 -25 -156 42 -206 25 -19
28 -19 52 -3 33 21 34 54 2 65 -13 5 -26 17 -30 26 -10 27 -7 73 6 81 16 10
55 -41 65 -86 7 -28 13 -35 33 -35 23 0 25 5 28 47 6 100 -82 190 -153 157z"/>
<path d="M4535 2864 l30 -15 -45 6 c-28 4 -41 3 -35 -3 16 -16 75 -25 75 -13
0 6 8 11 18 12 9 0 1 7 -18 14 -47 18 -63 17 -25 -1z"/>
<path d="M4605 2840 c3 -5 15 -10 26 -10 11 0 17 5 14 10 -3 6 -15 10 -26 10
-11 0 -17 -4 -14 -10z"/>
<path d="M4515 2820 c3 -5 8 -10 11 -10 2 0 4 5 4 10 0 6 -5 10 -11 10 -5 0
-7 -4 -4 -10z"/>
<path d="M4600 2816 c0 -9 30 -14 35 -6 4 6 -3 10 -14 10 -12 0 -21 -2 -21 -4z"/>
<path d="M4240 1930 c0 -5 5 -10 11 -10 5 0 7 5 4 10 -3 6 -8 10 -11 10 -2 0
-4 -4 -4 -10z"/>
<path d="M4278 1933 c7 -3 16 -2 19 1 4 3 -2 6 -13 5 -11 0 -14 -3 -6 -6z"/>
</g>
</svg>
